<svg xmlns="http://www.w3.org/2000/svg" xmlns:xlink="http://www.w3.org/1999/xlink" version="1.1" id="geologo" x="0px" y="0px" viewBox="0 0 479.979 479.979" style="enable-background:new 0 0 479.979 479.979;" xml:space="preserve">
	<g>
		<g>
			<g>
				<path style="fill:#010002;" d="M239.989,72.032c-14.884,0-29.358,1.704-43.336,4.746c2.2,3.624,4.357,7.205,6.32,10.419     c28.301-5.695,42.947,2.243,50.432,10.419c6.191,0.453,12.295,1.23,18.314,2.308c3.063,18.853,9.362,44.781,21.571,51.554     c19.716,10.936,43.616,35.031,52.46,39.367c8.801,4.336,19.673,41.632,17.494,56.882c-2.179,15.337-28.43,32.809-21.873,48.146     c6.558,15.337-4.357,32.809-4.357,32.809s-10.893,50.26-17.537,56.904c-6.45,6.536-45.881,24.008-37.166,34.902     c8.736,11.023,35.009-2.114,61.261-8.693c6.45-1.596,12.899-3.602,19.09-5.867c-32.054,30.242-75.131,48.944-122.651,48.944     c-34.19,0-66.05-9.793-93.251-26.51c24.353,0.194-18.27-37.253,11.152-43.012c30.825-6.083,43.789-41.351,33.909-40.812     c-9.879,0.496-28.624-5.091-41.826-21.722c-13.244-16.674-24.785-12.921-38.439-10.289     c-11.929,2.351-26.575,36.843-30.242,45.881c-9.275-17.753-15.553-37.274-18.421-57.896     c15.164-7.938,39.863-21.269,48.772-28.668c13.137-10.936-4.4-15.294-6.579-21.894c-1.532-4.746-0.863-14.021-0.367-24.483     c-10.57-2.092-18.918-7.097-24.03-15.531c-2.545-4.163-4.961-10.138-4.961-17.882c0-9.728,4.077-22.304,16.221-37.382     c-2.092-3.451-4.4-7.248-6.752-11.131c-30.566,35.678-49.16,81.883-49.16,132.401c0,112.47,91.482,204.038,203.952,204.038     c112.448,0,203.952-91.568,203.952-204.038C443.941,163.514,352.438,72.032,239.989,72.032z M389.453,260.863     c-10.785-7.679-19.673-41.545-13.072-52.525c3.947-6.558,14.194-12.317,21.765-15.876c13.201,24.957,20.773,53.323,20.773,83.479     c0,9.038-0.884,17.839-2.2,26.51C412.858,287.114,405.416,272.317,389.453,260.863z"/>
				<path style="fill:#010002;" d="M100.017,198.178c7.485,12.317,38.849,7.14,72.845-11.001l59.6,98.104l21.765-13.244     l-59.579-98.082c31.709-21.808,50.713-47.262,43.249-59.557c-5.371-8.909-23.275-8.585-45.514-0.992l-46.83-77.008     c11.497-12.36,16.955-23.793,12.835-30.631c-7.118-11.67-39.345-5.069-71.939,14.754C53.79,40.388,33.126,65.884,40.244,77.576     c4.098,6.752,16.825,7.248,33.046,2.718l46.809,77.029C103.123,173.587,94.624,189.312,100.017,198.178z"/>
			</g>
		</g>
	</g>
</svg>